<?xml version="1.0" encoding="UTF-8" standalone="no"?>
<svg
   xmlns:dc="http://purl.org/dc/elements/1.1/"
   xmlns:cc="http://creativecommons.org/ns#"
   xmlns:rdf="http://www.w3.org/1999/02/22-rdf-syntax-ns#"
   xmlns:svg="http://www.w3.org/2000/svg"
   xmlns="http://www.w3.org/2000/svg"
   viewBox="0 0 377.94666 377.94666"
   height="377.94666"
   width="377.94666"
   xml:space="preserve"
   id="svg2"
   version="1.1"><metadata
     id="metadata8"><rdf:RDF><cc:Work
         rdf:about=""><dc:format>image/svg+xml</dc:format><dc:type
           rdf:resource="http://purl.org/dc/dcmitype/StillImage" /></cc:Work></rdf:RDF></metadata><defs
     id="defs6"><clipPath
       id="clipPath26"
       clipPathUnits="userSpaceOnUse"><path
         id="path24"
         d="M 0,283.46 H 283.46 V 0 H 0 Z" /></clipPath><clipPath
       id="clipPath90"
       clipPathUnits="userSpaceOnUse"><path
         id="path88"
         d="M 0,283.46 H 283.46 V 0 H 0 Z" /></clipPath></defs><g
     transform="matrix(1.3333333,0,0,-1.3333333,0,377.94667)"
     id="g10"><g
       transform="translate(84.9146,96.1731)"
       id="g12"><path
         id="path14"
         style="fill:#344f99;fill-opacity:1;fill-rule:nonzero;stroke:none"
         d="M 0,0 H 0.993 L 2.607,-2.508 4.222,0 H 5.214 V -5.306 H 4.282 v 3.805 L 2.607,-4.002 h -0.03 l -1.66,2.486 v -3.79 l -0.917,0 z" /></g><g
       transform="translate(91.4948,96.1731)"
       id="g16"><path
         id="path18"
         style="fill:#344f99;fill-opacity:1;fill-rule:nonzero;stroke:none"
         d="M 0,0 H 3.934 V -0.834 H 0.932 V -2.213 H 3.593 V -3.047 H 0.932 V -4.472 H 3.971 V -5.306 H 0 Z" /></g><g
       id="g20"><g
         clip-path="url(#clipPath26)"
         id="g22"><g
           transform="translate(97.5061,95.3246)"
           id="g28"><path
             id="path30"
             style="fill:#344f99;fill-opacity:1;fill-rule:nonzero;stroke:none"
             d="m 0,0 v -3.608 h 1.045 c 1.115,0 1.842,0.75 1.842,1.788 v 0.016 C 2.887,-0.766 2.16,0 1.045,0 Z m -0.932,0.848 h 1.977 c 1.668,0 2.82,-1.144 2.82,-2.637 v -0.015 c 0,-1.493 -1.152,-2.654 -2.82,-2.654 h -1.977 z" /></g><path
           id="path32"
           style="fill:#344f99;fill-opacity:1;fill-rule:nonzero;stroke:none"
           d="m 102.555,96.173 h 0.932 v -5.306 h -0.932 z" /><g
           transform="translate(108.1191,92.9741)"
           id="g34"><path
             id="path36"
             style="fill:#344f99;fill-opacity:1;fill-rule:nonzero;stroke:none"
             d="M 0,0 -0.918,2.123 -1.826,0 Z m -1.335,3.237 h 0.864 L 1.864,-2.107 H 0.879 l -0.538,1.281 h -2.509 l -0.546,-1.281 h -0.955 z" /></g><g
           transform="translate(116.3816,92.9741)"
           id="g38"><path
             id="path40"
             style="fill:#344f99;fill-opacity:1;fill-rule:nonzero;stroke:none"
             d="M 0,0 -0.917,2.123 -1.826,0 Z M -1.334,3.237 H -0.47 L 1.865,-2.107 H 0.88 l -0.539,1.281 h -2.508 l -0.546,-1.281 h -0.956 z" /></g><g
           transform="translate(118.588,93.505)"
           id="g42"><path
             id="path44"
             style="fill:#344f99;fill-opacity:1;fill-rule:nonzero;stroke:none"
             d="m 0,0 v 0.016 c 0,1.508 1.13,2.743 2.736,2.743 0.978,0 1.57,-0.341 2.077,-0.826 L 4.215,1.243 C 3.79,1.637 3.335,1.902 2.729,1.902 1.721,1.902 0.978,1.069 0.978,0.03 V 0.016 c 0,-1.039 0.735,-1.88 1.751,-1.88 0.652,0 1.069,0.257 1.524,0.681 L 4.851,-1.788 C 4.298,-2.365 3.692,-2.729 2.698,-2.729 1.152,-2.729 0,-1.524 0,0" /></g><g
           transform="translate(125.7215,95.309)"
           id="g46"><path
             id="path48"
             style="fill:#344f99;fill-opacity:1;fill-rule:nonzero;stroke:none"
             d="M 0,0 H -1.682 V 0.864 H 2.623 V 0 H 0.94 V -4.442 H 0 Z" /></g><path
           id="path50"
           style="fill:#344f99;fill-opacity:1;fill-rule:nonzero;stroke:none"
           d="m 129.384,96.173 h 0.932 v -5.306 h -0.932 z" /><g
           transform="translate(136.0696,93.505)"
           id="g52"><path
             id="path54"
             style="fill:#344f99;fill-opacity:1;fill-rule:nonzero;stroke:none"
             d="m 0,0 v 0.016 c 0,1.03 -0.75,1.886 -1.804,1.886 -1.054,0 -1.789,-0.841 -1.789,-1.872 V 0.016 c 0,-1.032 0.751,-1.88 1.805,-1.88 C -0.735,-1.864 0,-1.031 0,0 m -4.571,0 v 0.016 c 0,1.493 1.153,2.743 2.783,2.743 1.629,0 2.766,-1.235 2.766,-2.729 V 0.016 c 0,-1.494 -1.152,-2.745 -2.782,-2.745 -1.63,0 -2.767,1.236 -2.767,2.729" /></g><g
           transform="translate(138.1776,96.1731)"
           id="g56"><path
             id="path58"
             style="fill:#344f99;fill-opacity:1;fill-rule:nonzero;stroke:none"
             d="M 0,0 H 0.864 L 3.707,-3.669 V 0 H 4.624 V -5.306 H 3.843 L 0.918,-1.531 V -5.306 H 0 Z" /></g><g
           transform="translate(146.2053,93.505)"
           id="g60"><path
             id="path62"
             style="fill:#344f99;fill-opacity:1;fill-rule:nonzero;stroke:none"
             d="m 0,0 v 0.016 c 0,1.485 1.138,2.743 2.736,2.743 0.926,0 1.494,-0.257 2.04,-0.72 L 4.185,1.335 C 3.775,1.683 3.373,1.902 2.698,1.902 1.721,1.902 0.978,1.046 0.978,0.03 V 0.016 c 0,-1.092 0.72,-1.896 1.804,-1.896 0.501,0 0.956,0.16 1.281,0.402 v 0.993 H 2.706 V 0.326 H 4.965 V -1.902 C 4.442,-2.35 3.692,-2.729 2.752,-2.729 1.092,-2.729 0,-1.546 0,0" /></g><g
           transform="translate(154.6811,93.543)"
           id="g64"><path
             id="path66"
             style="fill:#344f99;fill-opacity:1;fill-rule:nonzero;stroke:none"
             d="m 0,0 c 0.667,0 1.091,0.349 1.091,0.886 v 0.016 c 0,0.569 -0.409,0.88 -1.099,0.88 H -1.365 V 0 Z M -2.297,2.63 H 0.068 C 0.735,2.63 1.258,2.433 1.6,2.099 1.88,1.812 2.039,1.417 2.039,0.955 V 0.94 C 2.039,0.068 1.516,-0.455 0.78,-0.667 L 2.213,-2.676 H 1.107 l -1.305,1.85 h -1.167 v -1.85 h -0.932 z" /></g><g
           transform="translate(162.2004,93.505)"
           id="g68"><path
             id="path70"
             style="fill:#344f99;fill-opacity:1;fill-rule:nonzero;stroke:none"
             d="m 0,0 v 0.016 c 0,1.03 -0.75,1.886 -1.803,1.886 -1.054,0 -1.79,-0.841 -1.79,-1.872 V 0.016 c 0,-1.032 0.751,-1.88 1.805,-1.88 C -0.734,-1.864 0,-1.031 0,0 m -4.571,0 v 0.016 c 0,1.493 1.153,2.743 2.783,2.743 1.629,0 2.766,-1.235 2.766,-2.729 V 0.016 c 0,-1.494 -1.152,-2.745 -2.781,-2.745 -1.63,0 -2.768,1.236 -2.768,2.729" /></g><g
           transform="translate(164.2256,93.1182)"
           id="g72"><path
             id="path74"
             style="fill:#344f99;fill-opacity:1;fill-rule:nonzero;stroke:none"
             d="M 0,0 V 3.055 H 0.932 V 0.038 c 0,-0.985 0.508,-1.508 1.342,-1.508 0.827,0 1.334,0.492 1.334,1.47 V 3.055 H 4.54 V 0.046 c 0,-1.584 -0.894,-2.38 -2.281,-2.38 C 0.88,-2.334 0,-1.538 0,0" /></g><g
           transform="translate(172.0633,93.4144)"
           id="g76"><path
             id="path78"
             style="fill:#344f99;fill-opacity:1;fill-rule:nonzero;stroke:none"
             d="M 0,0 C 0.705,0 1.145,0.394 1.145,0.947 V 0.962 C 1.145,1.584 0.697,1.91 0,1.91 H -1.083 V 0 Z m -2.015,2.759 h 2.091 c 1.243,0 2.016,-0.706 2.016,-1.774 V 0.97 c 0,-1.19 -0.954,-1.812 -2.122,-1.812 h -1.053 v -1.705 h -0.932 z" /></g></g></g><g
       transform="translate(130.2227,113.4493)"
       id="g80"><path
         id="path82"
         style="fill:#00a3d4;fill-opacity:1;fill-rule:nonzero;stroke:none"
         d="M 0,0 H 6.111 L 3.056,13.559 Z" /></g><g
       id="g84"><g
         clip-path="url(#clipPath90)"
         id="g86"><g
           transform="translate(160.043,186.6167)"
           id="g92"><path
             id="path94"
             style="fill:#00a3d4;fill-opacity:1;fill-rule:nonzero;stroke:none"
             d="m 0,0 c -12.191,0 -16.198,-5.456 -16.198,-20.375 0,-15.941 4.347,-20.375 16.198,-20.375 1.278,0 2.983,0.086 3.921,0.256 v 12.958 h -9.036 v 12.191 H 13.773 V -2.534 C 9.219,-0.919 4.459,0 0,0" /></g><g
           transform="translate(128.7427,107.3848)"
           id="g96"><path
             id="path98"
             style="fill:#00a3d4;fill-opacity:1;fill-rule:nonzero;stroke:none"
             d="M 0,0 -1.486,-6.535 H 10.557 L 9.071,0 Z" /></g><g
           transform="translate(99.9004,113.544)"
           id="g100"><path
             id="path102"
             style="fill:#00a3d4;fill-opacity:1;fill-rule:nonzero;stroke:none"
             d="M 0,0 6.198,19.426 C 3.715,19.022 1.1,18.879 -1.536,18.879 c -1.575,0 -3.095,0.073 -4.554,0.208 z" /></g><g
           transform="translate(108.936,153.8204)"
           id="g104"><path
             id="path106"
             style="fill:#00a3d4;fill-opacity:1;fill-rule:nonzero;stroke:none"
             d="M 0,0 C 0,7.246 -4.178,8.185 -10.23,8.185 H -23.913 V -7.038 c 3.485,-1.074 8.544,-1.913 12.83,-1.913 C -4.519,-8.951 0,-7.075 0,0" /></g><g
           transform="translate(96.0332,104.377)"
           id="g108"><path
             id="path110"
             style="fill:#00a3d4;fill-opacity:1;fill-rule:nonzero;stroke:none"
             d="m 0,0 -5.539,17.57 0.23,-21.098 H 13.043 L 13.273,17.57 7.735,0 Z" /></g><g
           transform="translate(173.5279,135.5493)"
           id="g112"><path
             id="path114"
             style="fill:#00c2f3;fill-opacity:1;fill-rule:nonzero;stroke:none"
             d="M 0,0 C 0.102,-0.028 0.189,-0.06 0.288,-0.088 V 0.108 C 0.19,0.073 0.1,0.035 0,0" /></g><g
           transform="translate(173.8158,120.754)"
           id="g116"><path
             id="path118"
             style="fill:#00a3d4;fill-opacity:1;fill-rule:nonzero;stroke:none"
             d="m 0,0 v 7.299 c -2.44,0.826 -4.972,1.295 -7.351,1.295 -6.828,0 -9.071,-3.056 -9.071,-11.411 0,-8.928 2.434,-11.412 9.071,-11.412 0.716,0 1.671,0.048 2.196,0.144 v 7.257 h -5.061 V 0 Z" /></g><g
           transform="translate(149.6582,117.9366)"
           id="g120"><path
             id="path122"
             style="fill:#00a3d4;fill-opacity:1;fill-rule:nonzero;stroke:none"
             d="m 0,0 c 0,7.158 1.491,12.209 4.814,15.222 -17.148,0.974 -24.438,11.873 -24.438,33.083 0,16.007 4.148,26.146 13.712,30.575 h -23.13 V 66.83 H -51.634 V 56.515 h 4.944 c 9.463,0 19.523,-2.728 19.523,-20.631 0,-9.591 -3.248,-14.999 -8.101,-17.98 h 2.221 v -34.991 h 2.569 l 9.706,35.183 h 8.785 l 9.705,-35.183 H 7.569 C 2.328,-14.597 0,-8.942 0,0" /></g><path
           id="path124"
           style="fill:none;stroke:#00a3d4;stroke-width:0.5;stroke-linecap:butt;stroke-linejoin:miter;stroke-miterlimit:10;stroke-dasharray:none;stroke-opacity:1"
           d="M 173.876,100.7 H 85.111 v 96.078 h 88.765 z" /></g></g></g></svg>